IKResults
version=1
nRows=12
nColumns=34
inDegrees=yes

Units are S.I. units (second, meters, Newtons, ...)
If the header above contains a line with 'inDegrees', this indicates whether rotational values are in degrees (yes) or radians (no).

endheader
time	pelvis_tilt	pelvis_list	pelvis_rotation	pelvis_tx	pelvis_ty	pelvis_tz	hip_flexion_r	hip_adduction_r	hip_rotation_r	knee_angle_r	knee_angle_beta_r	ankle_angle_r	subtalar_angle_r	mtp_angle_r	hip_flexion_l	hip_adduction_l	hip_rotation_l	knee_angle_l	knee_angle_beta_l	ankle_angle_l	subtalar_angle_l	mtp_angle_l	lumbar_extension	lumbar_bending	lumbar_rotation	arm_flex_r	arm_add_r	arm_rot_r	elbow_flex_r	arm_flex_l	arm_add_l	arm_rot_l	elbow_flex_l
      7.20500000	     -0.51227845	    -48.71754335	     89.45803444	      1.19803651	      0.70898788	     -0.61786533	     21.82660401	     -7.69547843	     -1.23981204	     67.90483907	      1.18516302	    -20.51460799	    -16.95690594	      0.00000000	     17.43526106	     -9.08842344	     -5.19663497	     60.79342486	      1.06104543	    -15.95658118	     -4.33002028	      0.00000000	     31.83589465	     -0.70647897	     -1.34240337	    -15.47433652	    -69.87286705	    -89.48764028	    117.92541600	    -13.21785281	    -73.61967025	    -89.29599098	    124.18364672
      7.21000000	     -0.49469665	    -48.73164573	     89.47316087	      1.19790901	      0.70887158	     -0.61792706	     21.82407161	     -7.69659850	     -1.25109557	     67.91737427	      1.18538180	    -20.26658245	    -16.68082950	      0.00000000	     17.44511096	     -9.08640773	     -5.17205180	     60.80018159	      1.06116335	    -15.88443219	     -4.17389162	      0.00000000	     31.83002065	     -0.67826262	     -1.35075811	    -15.42140751	    -69.92792314	    -89.48010545	    117.89324124	    -13.30254650	    -73.56868663	    -89.31748211	    124.21431458
      7.21500000	     -0.51097598	    -48.73478661	     89.48057401	      1.19800998	      0.70883262	     -0.61798889	     21.80719127	     -7.67718668	     -1.21547187	     67.91188880	      1.18528606	    -20.20380848	    -16.61380758	      0.00000000	     17.44499591	     -9.08285644	     -5.15944802	     60.79661602	      1.06110112	    -15.85941857	     -4.11662116	      0.00000000	     31.80654766	     -0.71563660	     -1.34859113	    -15.48922301	    -69.87499344	    -89.49561532	    117.92179718	    -13.20451172	    -73.58251538	    -89.29025947	    124.19350213
      7.22000000	     -0.50801881	    -48.75042732	     89.48963378	      1.19795977	      0.70874132	     -0.61810280	     21.80007117	     -7.69814986	     -1.24233115	     67.89258334	      1.18494912	    -20.08896756	    -16.42807765	      0.00000000	     17.44068380	     -9.07996535	     -5.15105163	     60.78222349	      1.06084993	    -15.80971289	     -4.04702436	      0.00000000	     31.81024141	     -0.71816476	     -1.35079871	    -15.48931387	    -69.87669007	    -89.49591189	    117.90733484	    -13.26568177	    -73.56536633	    -89.29200863	    124.16850849
      7.22500000	     -0.51437523	    -48.75581519	     89.49115092	      1.19801922	      0.70871865	     -0.61813014	     21.79798615	     -7.69024912	     -1.20925889	     67.91369370	      1.18531756	    -19.81926328	    -16.05627050	      0.00000000	     17.44500915	     -9.07907630	     -5.13980564	     60.78328211	      1.06086840	    -15.73387106	     -3.88128678	      0.00000000	     31.78161941	     -0.73843198	     -1.33746567	    -15.52501998	    -69.84559436	    -89.50479006	    117.94418798	    -13.22514120	    -73.58469909	    -89.28210644	    124.15261105
      7.23000000	     -0.50229416	    -48.76184864	     89.47700734	      1.19799655	      0.70868152	     -0.61824890	     21.79275948	     -7.68129772	     -1.21234196	     67.88394224	      1.18479830	    -19.97688163	    -16.26244911	      0.00000000	     17.42380795	     -9.08599501	     -5.14319039	     60.75108161	      1.06030640	    -15.83902169	     -4.03394962	      0.00000000	     31.76414478	     -0.70967260	     -1.31560369	    -15.40378646	    -69.84812901	    -89.48598387	    117.92165825	    -13.36568317	    -73.52546534	    -89.32264826	    124.22325356
      7.23500000	     -0.50890776	    -48.76222229	     89.44884717	      1.19801873	      0.70868255	     -0.61822395	     21.80525383	     -7.65628269	     -1.19535297	     67.86693384	      1.18450145	    -20.54573351	    -17.07927503	      0.00000000	     17.42595334	     -9.07952559	     -5.17930217	     60.76075951	      1.06047531	    -15.97395779	     -4.23079394	      0.00000000	     31.72267192	     -0.69267231	     -1.29166814	    -15.39350964	    -69.87283497	    -89.48934048	    117.92084799	    -13.27644861	    -73.48234211	    -89.30309325	    124.19555278
      7.24000000	     -0.51126345	    -48.77403919	     89.43039496	      1.19810681	      0.70862665	     -0.61830162	     21.81476952	     -7.65200104	     -1.19653181	     67.86203936	      1.18441602	    -20.55985963	    -17.10750428	      0.00000000	     17.41493618	     -9.09341587	     -5.19348758	     60.73012209	      1.05994059	    -15.99677742	     -4.31217406	      0.00000000	     31.72625654	     -0.69126138	     -1.26770369	    -15.40880760	    -69.86739678	    -89.48488438	    117.94105105	    -13.29833379	    -73.48538580	    -89.29778574	    124.19977694
      7.24500000	     -0.50873970	    -48.78628959	     89.45105986	      1.19807825	      0.70856615	     -0.61841802	     21.79862700	     -7.65636914	     -1.19403662	     67.85294793	      1.18425735	    -20.18210944	    -16.59362377	      0.00000000	     17.42227528	     -9.09300306	     -5.18320727	     60.72745652	      1.05989406	    -15.86744545	     -4.01201539	      0.00000000	     31.72538009	     -0.70096352	     -1.27709970	    -15.46405729	    -69.86424502	    -89.49253485	    117.94193240	    -13.29542633	    -73.46763886	    -89.29171042	    124.20694405
      7.25000000	     -0.51634162	    -48.79142962	     89.41532844	      1.19810526	      0.70853591	     -0.61849234	     21.79816184	     -7.65080902	     -1.18274763	     67.81686697	      1.18362762	    -20.41545174	    -16.93883207	      0.00000000	     17.40273952	     -9.09397116	     -5.21710952	     60.69784496	      1.05937724	    -15.99863031	     -4.25763136	      0.00000000	     31.69145199	     -0.66199135	     -1.25880202	    -15.36788407	    -69.90071583	    -89.47991594	    117.97436656	    -13.29685075	    -73.34851941	    -89.30783736	    124.21531012
      7.25500000	     -0.51823897	    -48.80965789	     89.40711907	      1.19813710	      0.70840598	     -0.61860403	     21.80253332	     -7.65056892	     -1.13964539	     67.84043734	      1.18403900	    -19.88832920	    -16.21716818	      0.00000000	     17.39800154	     -9.10846412	     -5.24794598	     60.69083779	      1.05925495	    -15.79072699	     -3.86680603	      0.00000000	     31.70833185	     -0.66990187	     -1.24622254	    -15.44025346	    -69.89503710	    -89.48786964	    117.96191672	    -13.31206857	    -73.36173045	    -89.30198850	    124.23253280
      7.26000000	     -0.51195524	    -48.80756836	     89.38421796	      1.19811556	      0.70839056	     -0.61861936	     21.81154835	     -7.64668314	     -1.15032606	     67.80948447	      1.18349877	    -20.45190025	    -16.97719492	      0.00000000	     17.38937748	     -9.10715519	     -5.27617784	     60.68520457	      1.05915663	    -15.96831214	     -4.19412650	      0.00000000	     31.66241744	     -0.64535624	     -1.21534703	    -15.36332893	    -69.89583839	    -89.48211457	    117.95449072	    -13.27763096	    -73.33115961	    -89.30192937	    124.24851906
